<svg width="97" height="130" viewBox="0 0 97 130" fill="none" xmlns="http://www.w3.org/2000/svg">
<path d="M27.3523 126.406C21.1474 124.386 7.52554 118.398 2.67708 104.545C-2.17137 90.6921 0.656916 78.4988 2.6771 74.8913C4.8416 69.8408 7.87188 57.3157 2.6771 47.6187C7.07823 52.3085 16.0536 63.5927 16.7463 71.2117C22.3739 64.6461 33.1964 49.4802 33.1964 30.9522C33.1964 13.5809 28.63 3.09727 25.7408 0.428838C25.5536 0.283465 25.3692 0.140507 25.1878 0C25.3635 0.108108 25.5484 0.251146 25.7408 0.428838C38.4368 10.2864 64.2357 31.2839 61.3347 56.7096C61.2554 57.4053 61.1794 58.0719 61.1067 58.7101C61.2084 58.3457 61.2861 58.0349 61.3347 57.7918C60.8252 62.1076 60.2311 67.103 59.9215 69.6196C65.0154 66.3511 73.524 58.1257 74.971 41.7746C74.8989 39.9709 74.4515 35.2812 73.2394 30.9522C80.3822 42.2797 92.3302 70.6056 82.9796 93.2895C86.4428 93.1451 93.9319 90.6921 96.183 82.0341C96.3994 90.9807 94.841 107.315 77.3519 120.129C59.8629 132.943 35.9381 131.24 27.3523 126.406Z" fill="#EB7D0F"/>
<path d="M13.9326 92.8566C14.2789 109.48 23.8893 118.83 37.9584 122.943C63.7158 125.107 79.6609 108.657 83.1962 101.298C70.7288 107.186 62.9944 107.359 60.6856 106.709C68.6509 99.2635 73.0953 82.2506 74.3218 74.6749C62.8933 89.5666 47.3379 94.5882 40.9887 95.2375C49.2138 81.8177 45.462 63.636 43.5861 57.5754C40.5558 69.0472 37.3091 83.5493 30.3827 90.9086C26.4735 95.0622 21.5083 98.4843 17.8287 95.2375C13.8648 91.74 14.0769 84.4151 13.9326 81.8177V92.8566Z" fill="#FFBB00"/>
</svg>
